<svg xmlns="http://www.w3.org/2000/svg" xmlns:xlink="http://www.w3.org/1999/xlink" width="50.054" height="34.577" viewBox="0 0 50.054 34.577"><defs><style>.a,.d,.o{fill:none;}.a,.c,.d{stroke:#000;}.a{opacity:0;}.b{clip-path:url(#a);}.c{fill:#b98068;}.e,.h,.i{fill:#fde9da;}.f{fill:#cd31f1;}.g{fill:#1be76f;}.h{opacity:0.203;}.i{opacity:0.203;}.j{opacity:0.199;}.k{clip-path:url(#b);}.l{fill:#ffe727;}.m{fill:#46d7d1;}.n{stroke:none;}</style><clipPath id="a"><rect class="a" width="45.402" height="25.944" rx="2" transform="translate(4.95 0) rotate(11)"/></clipPath><clipPath id="b"><rect class="a" width="45" height="27" rx="2"/></clipPath></defs><g transform="translate(-169 -438)"><g class="b" transform="translate(169.536 438.447)"><g class="c" transform="translate(4.95 0) rotate(11)"><rect class="n" width="45.402" height="25.944" rx="2"/><rect class="o" x="0.5" y="0.5" width="44.402" height="24.944" rx="1.5"/></g><g transform="translate(3.404 -12.807) rotate(11)"><line class="d" x2="44.104" transform="translate(4.935 16.493)"/><line class="d" x2="44.104" transform="translate(4.935 18.439)"/><rect class="e" width="7.783" height="3.243" transform="translate(29.257 20.709)"/><rect class="e" width="7.783" height="3.243" transform="translate(38.986 20.709)"/><rect class="e" width="3.892" height="0.649" transform="translate(42.877 24.276)"/><rect class="e" width="3.892" height="0.649" transform="translate(42.877 25.249)"/><path class="f" d="M3.184.707A1,1,0,0,1,4.6.707L7.076,3.184a1,1,0,0,1,0,1.414L4.6,7.076a1,1,0,0,1-1.414,0L.707,4.6a1,1,0,0,1,0-1.414Z" transform="translate(33.149 27.195)"/><path class="g" d="M3.184.707A1,1,0,0,1,4.6.707L7.076,3.184a1,1,0,0,1,0,1.414L4.6,7.076a1,1,0,0,1-1.414,0L.707,4.6a1,1,0,0,1,0-1.414Z" transform="translate(38.986 27.195)"/><rect class="h" width="50.59" height="3.243" transform="translate(2.212 8.287) rotate(43)"/><rect class="i" width="53.833" height="11.026" transform="translate(12.709 0) rotate(43)"/></g><rect class="j" width="45.402" height="25.944" rx="2" transform="translate(1.471 0.943) rotate(3)"/></g><g class="k" transform="translate(169 438)"><g class="c"><rect class="n" width="45" height="27" rx="2"/><rect class="o" x="0.5" y="0.5" width="44" height="26" rx="1.5"/></g><g transform="translate(-3.962 -12.277)"><line class="d" x2="44.104" transform="translate(4.935 16.493)"/><line class="d" x2="44.104" transform="translate(4.935 18.439)"/><rect class="e" width="8" height="3" transform="translate(28.962 20.277)"/><rect class="e" width="8" height="3" transform="translate(38.962 20.277)"/><rect class="e" width="3.789" height="0.649" transform="translate(43.115 24.276)"/><rect class="e" width="3.789" height="0.644" transform="translate(43.115 25.539)"/><path class="l" d="M3.836.591a1,1,0,0,1,1.329,0L8.159,3.253a1,1,0,0,1,0,1.495L5.164,7.409a1,1,0,0,1-1.329,0L.841,4.747a1,1,0,0,1,0-1.495Z" transform="translate(32.962 27.277)"/><path class="m" d="M3.293.707a1,1,0,0,1,1.414,0L7.293,3.293a1,1,0,0,1,0,1.414L4.707,7.293a1,1,0,0,1-1.414,0L.707,4.707a1,1,0,0,1,0-1.414Z" transform="translate(38.962 27.277)"/><rect class="h" width="50.59" height="3.243" transform="translate(2.212 8.287) rotate(43)"/><rect class="i" width="53.833" height="11.026" transform="translate(12.709 0) rotate(43)"/></g></g></g></svg>